<?xml version="1.0" standalone="no"?>
<!DOCTYPE svg PUBLIC "-//W3C//DTD SVG 20010904//EN"
 "http://www.w3.org/TR/2001/REC-SVG-20010904/DTD/svg10.dtd">
<svg version="1.0" xmlns="http://www.w3.org/2000/svg"
 width="1280.000000pt" height="1280.000000pt" viewBox="0 0 1280.000000 1280.000000"
 preserveAspectRatio="xMidYMid meet">
<metadata>
Created by potrace 1.11, written by Peter Selinger 2001-2013
</metadata>
<g transform="translate(0.000000,1280.000000) scale(0.100000,-0.100000)"
fill="#000000" stroke="none">
<path d="M5898 10305 c-2 -2 -71 -6 -153 -9 -83 -3 -166 -8 -185 -11 -19 -3
-62 -11 -95 -16 -33 -6 -76 -13 -95 -15 -19 -2 -46 -6 -60 -9 -14 -3 -41 -7
-60 -10 -19 -3 -114 -22 -210 -41 -96 -19 -186 -37 -200 -39 -63 -9 -300 -82
-435 -133 -220 -84 -329 -134 -505 -230 -63 -35 -149 -81 -190 -103 -41 -23
-156 -99 -255 -170 -148 -106 -214 -163 -372 -317 -124 -121 -228 -233 -294
-317 -55 -71 -103 -135 -106 -142 -6 -14 -38 -27 -133 -53 -41 -11 -106 -32
-145 -46 -38 -14 -76 -28 -84 -30 -8 -3 -12 -7 -9 -9 2 -3 42 9 89 26 94 35
249 80 249 72 0 -2 -20 -36 -45 -74 -25 -38 -45 -74 -45 -78 0 -5 -4 -11 -9
-13 -13 -5 -124 -202 -175 -310 -146 -309 -302 -733 -341 -928 -2 -8 -8 -33
-14 -55 -5 -22 -13 -60 -16 -85 -3 -25 -7 -58 -10 -75 -2 -16 -7 -50 -9 -75
-10 -97 -19 -166 -23 -185 -17 -83 -26 -828 -11 -930 4 -27 10 -75 13 -105 14
-135 100 -478 155 -620 23 -58 59 -154 82 -215 22 -60 53 -132 68 -160 15 -27
43 -79 62 -115 20 -36 55 -101 79 -145 23 -44 49 -91 56 -105 8 -14 36 -59 63
-100 27 -41 76 -119 110 -173 34 -53 91 -134 127 -180 35 -45 82 -104 103
-132 48 -64 268 -280 385 -380 114 -98 375 -292 440 -329 247 -139 382 -205
495 -244 63 -22 194 -71 290 -110 214 -85 460 -161 570 -176 19 -3 62 -9 95
-15 33 -5 87 -12 120 -16 33 -3 80 -8 105 -10 47 -5 114 -11 240 -20 118 -9
125 -12 181 -76 29 -32 54 -57 57 -55 2 3 -10 19 -26 38 -34 37 -72 81 -72 82
0 1 91 1 203 1 125 -1 228 4 272 12 39 7 90 15 115 18 25 3 56 8 70 11 14 3
39 8 55 10 49 6 68 11 141 34 38 12 78 23 88 25 27 6 88 25 111 35 11 5 52 19
90 31 39 12 88 30 110 40 22 10 69 30 105 44 254 105 606 274 711 341 38 24
71 44 74 44 2 0 115 77 252 171 173 121 271 195 328 252 44 44 143 133 220
197 77 65 192 171 255 237 127 131 308 295 500 450 136 110 148 120 241 207
67 63 225 169 474 319 11 7 51 33 90 58 38 25 90 53 115 63 25 10 59 24 75 31
38 17 137 52 290 105 66 22 152 52 190 65 69 24 244 64 460 105 61 12 111 23
113 24 1 2 -26 14 -60 27 -54 20 -86 24 -223 27 -238 6 -235 6 -305 -1 -36 -4
-154 -8 -264 -9 -109 -1 -248 -8 -309 -15 -60 -7 -142 -15 -181 -18 -61 -6
-230 -43 -276 -62 -8 -3 -19 -7 -25 -9 -51 -13 -201 -73 -285 -114 -57 -28
-135 -64 -174 -80 -103 -41 -257 -116 -366 -178 -52 -30 -145 -73 -206 -97
-65 -25 -160 -74 -230 -117 -65 -41 -162 -98 -214 -128 -52 -30 -155 -94 -229
-143 -73 -49 -172 -107 -220 -129 -47 -22 -106 -49 -131 -60 -91 -42 -296
-120 -324 -124 -15 -2 -36 -6 -46 -9 -10 -3 -27 -7 -37 -9 -10 -2 -74 -16
-143 -31 -69 -14 -145 -28 -170 -30 -25 -2 -74 -7 -110 -10 -176 -17 -774 16
-803 44 -8 8 52 32 163 66 83 25 83 25 79 30 -6 5 -123 -32 -223 -69 -37 -14
-71 -24 -75 -22 -4 3 -25 7 -46 9 -41 6 -246 65 -490 143 -77 24 -174 63 -216
87 -42 23 -128 71 -191 105 -64 35 -138 82 -164 104 -27 21 -56 44 -64 51 -9
7 -49 38 -90 71 -41 32 -166 150 -277 262 -199 201 -204 207 -296 362 -71 119
-108 194 -151 307 -51 136 -105 312 -120 390 -26 140 -24 477 5 655 11 69 22
139 23 155 2 17 6 37 9 45 4 8 20 69 37 135 44 169 141 389 263 600 l41 70 9
-37 c5 -21 13 -38 18 -38 4 0 2 19 -5 43 -12 41 -11 45 10 73 13 16 24 34 24
41 0 6 3 13 8 15 4 2 22 26 41 53 19 28 42 57 50 66 9 8 43 46 76 84 33 37
107 108 165 158 58 50 110 95 115 101 6 6 66 48 135 92 112 73 201 125 364
213 50 28 330 103 431 116 250 33 517 44 730 30 290 -20 754 -185 1010 -360
105 -72 306 -234 328 -264 6 -10 33 -42 59 -72 229 -266 288 -364 342 -574 32
-121 44 -185 52 -260 1 -16 5 -50 8 -75 4 -40 -1 -106 -20 -245 -3 -22 -25
-94 -49 -160 -24 -66 -45 -127 -47 -135 -2 -8 -5 -17 -9 -20 -3 -3 -13 -26
-23 -52 -9 -26 -31 -62 -48 -80 -17 -18 -50 -54 -75 -81 -50 -53 -170 -119
-271 -148 -93 -27 -222 -17 -322 24 -102 41 -179 122 -204 211 -10 34 -21 68
-25 76 -4 8 -4 31 0 51 5 20 10 52 13 72 7 60 17 80 65 136 35 41 63 62 117
87 40 18 75 37 79 43 3 6 -22 63 -56 127 -49 89 -74 125 -113 157 -74 61 -105
88 -150 128 -50 44 -56 47 -219 115 -76 31 -153 57 -182 59 -27 3 -64 7 -81 9
-103 14 -204 17 -239 7 -22 -6 -58 -13 -80 -17 -22 -3 -43 -8 -46 -10 -3 -2
-21 -6 -40 -9 -135 -23 -159 -33 -375 -152 -28 -15 -103 -77 -167 -137 l-115
-109 -62 -136 c-34 -75 -68 -149 -75 -166 -7 -16 -16 -62 -19 -101 -4 -39 -8
-80 -10 -90 -7 -36 -20 -169 -19 -189 1 -11 4 -54 7 -95 4 -41 9 -109 12 -150
6 -68 13 -88 78 -214 72 -140 108 -187 251 -331 77 -77 301 -218 505 -317 141
-70 172 -81 347 -123 159 -38 202 -45 255 -41 35 3 126 8 203 11 163 7 157 6
340 51 138 34 165 43 275 92 30 13 235 103 455 199 443 194 459 201 530 233
28 13 55 24 60 26 6 1 57 23 115 49 91 41 298 120 382 145 24 7 179 62 218 77
8 3 20 7 25 9 6 2 118 40 250 84 132 44 384 119 560 166 176 47 345 93 375
101 57 17 65 19 90 21 25 3 -2 19 -75 43 -38 13 -72 24 -75 24 -3 1 -12 5 -20
8 -20 8 -312 109 -325 112 -5 1 -17 5 -25 8 -112 47 -615 195 -892 263 l-158
38 -1 41 c0 22 -2 63 -4 90 -2 28 -6 102 -9 165 -3 63 -8 126 -10 140 -5 29
-17 132 -21 175 -4 47 -14 96 -56 296 -47 221 -114 412 -214 604 -55 106 -171
294 -194 315 -3 3 -10 13 -16 22 -37 63 -178 263 -224 317 -112 134 -299 325
-403 412 -28 24 -70 61 -92 82 -43 40 -260 187 -275 187 -5 0 -11 4 -13 9 -5
14 -302 189 -388 228 -41 19 -98 45 -127 58 -50 23 -154 58 -368 124 -129 39
-376 99 -440 106 -28 3 -66 7 -85 10 -91 12 -404 27 -412 20z"/>
<path d="M4412 7640 c0 -14 2 -19 5 -12 2 6 2 18 0 25 -3 6 -5 1 -5 -13z"/>
<path d="M4420 7576 c4 -19 6 -37 3 -39 -2 -3 0 -8 5 -11 6 -3 9 2 7 11 -2 10
-4 30 -4 46 -1 15 -5 27 -10 27 -5 0 -5 -15 -1 -34z"/>
</g>
</svg>
